<?xml version="1.0" standalone="no"?>
<!DOCTYPE svg PUBLIC "-//W3C//DTD SVG 20010904//EN"
 "http://www.w3.org/TR/2001/REC-SVG-20010904/DTD/svg10.dtd">
<svg version="1.0" xmlns="http://www.w3.org/2000/svg"
 width="24.000000pt" height="24.000000pt" viewBox="0 0 24.000000 24.000000"
 preserveAspectRatio="xMidYMid meet">

<g transform="translate(0.000000,24.000000) scale(0.100000,-0.100000)"
fill="#000000" stroke="none">
<path d="M77 216 c-62 -23 -89 -73 -67 -126 7 -17 17 -30 22 -30 6 0 7 -11 4
-26 -5 -18 -3 -24 4 -19 7 4 42 11 78 15 57 7 71 13 94 39 38 42 37 84 -1 122
-16 16 -38 29 -49 29 -11 0 -26 2 -34 5 -7 2 -30 -2 -51 -9z"/>
</g>
</svg>
