<?xml version="1.0" standalone="no"?>
<!DOCTYPE svg PUBLIC "-//W3C//DTD SVG 20010904//EN"
 "http://www.w3.org/TR/2001/REC-SVG-20010904/DTD/svg10.dtd">
<svg version="1.0" xmlns="http://www.w3.org/2000/svg"
 width="24.000000pt" height="24.000000pt" viewBox="0 0 24.000000 24.000000"
 preserveAspectRatio="xMidYMid meet">

<g transform="translate(0.000000,24.000000) scale(0.100000,-0.100000)"
fill="#000000" stroke="none">
<path d="M75 215 c-42 -15 -62 -36 -72 -73 -6 -25 14 -82 29 -82 6 0 7 -11 4
-25 -6 -23 -5 -24 20 -15 14 6 46 10 71 10 38 0 50 5 79 34 44 44 46 86 5 127
-16 16 -38 29 -49 29 -11 0 -26 2 -34 5 -7 2 -31 -2 -53 -10z m105 -18 c60
-30 58 -112 -3 -141 -31 -14 -129 -18 -121 -4 2 4 -2 10 -9 15 -45 26 -38 101
12 128 32 18 88 19 121 2z"/>
</g>
</svg>
